<svg width="55" height="36" viewBox="0 0 55 36" fill="none" xmlns="http://www.w3.org/2000/svg">
<path d="M52.3125 0H1.9375C0.86582 0 0 0.712207 0 1.59375V33.4688C0 34.3503 0.86582 35.0625 1.9375 35.0625H52.3125C53.3842 35.0625 54.25 34.3503 54.25 33.4688V1.59375C54.25 0.712207 53.3842 0 52.3125 0ZM49.8906 5.51836V31.4766H4.35938V5.51836L2.68828 4.44756L5.06777 1.93242L7.65918 3.59092H46.5969L49.1883 1.93242L51.5678 4.44756L49.8906 5.51836ZM46.5969 3.58594L27.125 16.0371L7.65312 3.58594L5.06172 1.92744L2.68223 4.44258L4.35332 5.51338L25.0361 18.7415C25.6309 19.1216 26.3627 19.328 27.1159 19.328C27.8691 19.328 28.6009 19.1216 29.1957 18.7415L49.8906 5.51836L51.5617 4.44756L49.1822 1.93242L46.5969 3.58594Z" fill="white"/>
</svg>
