<svg width="35" height="45" viewBox="0 0 35 45" fill="none" xmlns="http://www.w3.org/2000/svg">
<path d="M17.1626 26.6551C21.8501 26.6984 25.6988 22.772 25.7438 17.9006C25.7888 13.0292 22.0133 9.03245 17.3257 8.98916C12.6382 8.94586 8.78952 12.8722 8.74452 17.7436C8.69952 22.615 12.475 26.6118 17.1626 26.6551ZM17.285 13.4056C19.6287 13.4273 21.5165 15.4257 21.494 17.8614C21.4715 20.2971 19.5471 22.2602 17.2034 22.2386C14.8596 22.2169 12.9718 20.2185 12.9943 17.7829C13.0168 15.3472 14.9412 13.384 17.285 13.4056Z" fill="white"/>
<path d="M15.7708 43.8997C16.128 44.1699 16.5575 44.3174 16.9995 44.3215C17.4414 44.3255 17.8736 44.186 18.2357 43.9225C18.8861 43.4536 34.1738 32.2016 34.2435 17.98C34.3335 8.23942 26.7804 0.243603 17.4074 0.157024C8.03444 0.070446 0.334939 7.92537 0.245068 17.6549C0.0519829 31.8864 15.1292 43.4189 15.7708 43.8997ZM17.3666 4.5735C24.3979 4.63845 30.0612 10.6336 29.9936 17.9517C29.9477 27.7523 20.4977 36.4656 17.0457 39.3201C13.6491 36.4001 4.35958 27.5115 4.49478 17.7052C4.56228 10.3981 10.3353 4.50855 17.3666 4.5735Z" fill="white"/>
</svg>
