<svg width="41" height="41" viewBox="0 0 41 41" fill="none" xmlns="http://www.w3.org/2000/svg">
<path fill-rule="evenodd" clip-rule="evenodd" d="M4.63979 2.57485C5.07029 2.1443 5.58742 1.81021 6.15688 1.59474C6.72633 1.37928 7.33509 1.28736 7.94278 1.32509C8.55046 1.36283 9.14318 1.52934 9.6816 1.8136C10.22 2.09785 10.6919 2.49335 11.0658 2.97385L15.4784 8.6491C16.2895 9.6886 16.5757 11.0457 16.2554 12.3241L14.9088 17.7132C14.8388 17.9929 14.8423 18.2859 14.9191 18.5637C14.996 18.8416 15.1434 19.0948 15.3472 19.2987L21.3952 25.3441C21.5991 25.5478 21.8523 25.6953 22.1302 25.7721C22.408 25.8489 22.701 25.8525 22.9807 25.7825L28.3672 24.4358C28.999 24.2781 29.6584 24.266 30.2955 24.4006C30.9326 24.5352 31.5308 24.813 32.0448 25.2128L37.72 29.6255C39.7597 31.211 39.9487 34.2271 38.1217 36.0515L35.5754 38.5977C33.7563 40.4168 31.0342 41.2175 28.4958 40.325C22.0026 38.0394 16.1073 34.3215 11.2469 29.447C6.37135 24.5869 2.65252 18.6915 0.36629 12.1981C-0.52621 9.65972 0.274415 6.9376 2.09354 5.11585L4.63979 2.57222V2.57485ZM40.3057 0.385596C40.4279 0.507516 40.5249 0.652352 40.591 0.811808C40.6572 0.971264 40.6913 1.14221 40.6913 1.31485C40.6913 1.48749 40.6572 1.65843 40.591 1.81788C40.5249 1.97734 40.4279 2.12218 40.3057 2.2441L29.4198 13.1273H36.7514C37.0995 13.1273 37.4334 13.2656 37.6795 13.5118C37.9256 13.7579 38.0639 14.0917 38.0639 14.4398C38.0639 14.7879 37.9256 15.1218 37.6795 15.3679C37.4334 15.6141 37.0995 15.7523 36.7514 15.7523H26.2514C25.9033 15.7523 25.5695 15.6141 25.3233 15.3679C25.0772 15.1218 24.9389 14.7879 24.9389 14.4398V3.93985C24.9389 3.59175 25.0772 3.25791 25.3233 3.01177C25.5695 2.76563 25.9033 2.62735 26.2514 2.62735C26.5995 2.62735 26.9334 2.76563 27.1795 3.01177C27.4256 3.25791 27.5639 3.59175 27.5639 3.93985V11.2715L38.4472 0.385596C38.5691 0.263368 38.7139 0.166393 38.8734 0.100226C39.0328 0.0340589 39.2038 0 39.3764 0C39.5491 0 39.72 0.0340589 39.8795 0.100226C40.0389 0.166393 40.1837 0.263368 40.3057 0.385596Z" fill="white"/>
</svg>
