<svg width="76" height="72" viewBox="0 0 76 72" fill="none" xmlns="http://www.w3.org/2000/svg">
<g clip-path="url(#clip0)">
<path d="M65.5839 26.6171C50.5114 12.3709 25.9889 12.3709 10.9163 26.6171L0.848938 36.1313L11.1661 45.8829C18.7017 53.0054 28.6005 56.5678 38.5005 56.5678C48.4005 56.5678 58.298 53.0066 65.8349 45.8829L75.9023 36.3674L65.5839 26.6171ZM64.041 44.1885C49.9573 57.4989 27.0424 57.4989 12.9587 44.1885L4.4342 36.1313L12.7089 28.3102C26.7926 14.9999 49.7076 14.9999 63.7913 28.3102L72.3158 36.3674L64.041 44.1885Z" fill="white"/>
<path d="M37.0717 26.6279C32.1781 26.6279 28.1973 30.3904 28.1973 35.0158C28.1973 35.6772 28.7653 36.214 29.4651 36.214C30.1649 36.214 30.7329 35.6772 30.7329 35.0158C30.7329 31.7121 33.5765 29.0244 37.0717 29.0244C37.7715 29.0244 38.3395 28.4876 38.3395 27.8261C38.3395 27.1647 37.7728 26.6279 37.0717 26.6279Z" fill="white"/>
<path d="M38.3395 20.6365C29.2521 20.6365 21.8585 27.6248 21.8585 36.214C21.8585 44.8032 29.2521 51.7915 38.3395 51.7915C47.4269 51.7915 54.8205 44.8032 54.8205 36.214C54.8205 27.6248 47.4281 20.6365 38.3395 20.6365ZM38.3395 49.395C30.6505 49.395 24.394 43.4815 24.394 36.214C24.394 28.9465 30.6505 23.0331 38.3395 23.0331C46.0285 23.0331 52.285 28.9465 52.285 36.214C52.285 43.4815 46.0298 49.395 38.3395 49.395Z" fill="white"/>
</g>
<defs>
<clipPath id="clip0">
<rect width="75.0521" height="70.9375" fill="white" transform="translate(0.848938 0.78125)"/>
</clipPath>
</defs>
</svg>
